<mxfile host="app.diagrams.net" modified="2020-10-24T13:54:55.763Z" agent="5.0 (Windows NT 10.0; Win64; x64) AppleWebKit/537.36 (KHTML, like Gecko) Chrome/86.0.4240.111 Safari/537.36" etag="knTUYwYPn1QOiwGTmLwB" version="13.8.1" type="github">
  <diagram id="K_EA1YP_9qlFz70oY3_R" name="Page-1">
    <mxGraphModel dx="2272" dy="1862" grid="1" gridSize="10" guides="1" tooltips="1" connect="1" arrows="1" fold="1" page="1" pageScale="1" pageWidth="850" pageHeight="1100" math="0" shadow="0">
      <root>
        <mxCell id="0" />
        <mxCell id="1" parent="0" />
        <mxCell id="Y2eR_TgA9FXkRKuqVugD-1" value="IAccount&lt;br&gt;" style="rounded=0;whiteSpace=wrap;html=1;" parent="1" vertex="1">
          <mxGeometry x="500" y="-20" width="120" height="60" as="geometry" />
        </mxCell>
        <mxCell id="Y2eR_TgA9FXkRKuqVugD-2" value="&lt;b&gt;Business&lt;br&gt;&lt;/b&gt;- account: Account&lt;br&gt;- address: Address&lt;br&gt;- name: string&lt;br&gt;- hoursOfOperation: HoursOfOperation[]&lt;br&gt;- maskRequirement: MaskRequirement&lt;br&gt;- curbsideAvailibilityList: CurbsideAvailibility[]&lt;br&gt;- maxCapacity: int&lt;br&gt;- covidRules: string??&lt;br&gt;- atRiskPopulatiosHours: string&lt;br&gt;- generalDescription: string&lt;br&gt;- imageFilesList: string[]&lt;br&gt;&lt;br&gt;&lt;br&gt;+ Business(name: string): void&lt;br&gt;+ getAddress(): Address&lt;br&gt;+ setAddress(address: Address): void&lt;br&gt;+ getName(): string&lt;br&gt;+ setName(name: string): void&lt;br&gt;+ getHoursOfOperation(): string&lt;br&gt;+ setHoursOfOperation(hours: string): void&lt;br&gt;+ getMarkRequirement(): MaskRequirement&lt;br&gt;+ setMaskRequirement(requirement: MaskRequirement)&lt;br&gt;+ getMaxCapacity(): int&lt;br&gt;+ setMaxCapaxity(maxCapacity: int): void&lt;br&gt;+ ... getters and setters for the rest" style="rounded=0;whiteSpace=wrap;html=1;align=left;" parent="1" vertex="1">
          <mxGeometry y="120" width="360" height="370" as="geometry" />
        </mxCell>
        <mxCell id="GVMPBroUDqH6-bMmOwNC-11" value="Has a" style="edgeStyle=orthogonalEdgeStyle;rounded=0;orthogonalLoop=1;jettySize=auto;html=1;entryX=0;entryY=0.5;entryDx=0;entryDy=0;exitX=1.006;exitY=0.111;exitDx=0;exitDy=0;exitPerimeter=0;" edge="1" parent="1" source="Y2eR_TgA9FXkRKuqVugD-2" target="Y2eR_TgA9FXkRKuqVugD-3">
          <mxGeometry relative="1" as="geometry">
            <mxPoint x="400" y="280" as="sourcePoint" />
          </mxGeometry>
        </mxCell>
        <mxCell id="Y2eR_TgA9FXkRKuqVugD-3" value="&lt;b&gt;Account&lt;/b&gt;&lt;br&gt;+ email: string&lt;br&gt;+ hash: string&lt;br&gt;+ type: UserTypeEnum" style="rounded=0;whiteSpace=wrap;html=1;align=left;" parent="1" vertex="1">
          <mxGeometry x="440" y="120" width="240" height="80" as="geometry" />
        </mxCell>
        <mxCell id="Y2eR_TgA9FXkRKuqVugD-5" value="&lt;b&gt;BusinessController(&quot;/business/&quot;)&lt;/b&gt;&lt;br&gt;&lt;br&gt;@GET(&quot;/&quot;)&lt;br&gt;getAllBusinesses(): Business[]&lt;br&gt;&lt;br&gt;@GET(&quot;/:id&quot;)&lt;br&gt;getBusinessById(): Business&lt;br&gt;&lt;br&gt;@POST(&quot;/&quot;)&lt;br&gt;createBusiness(params: *...all params*): void&lt;br&gt;&lt;br&gt;@DELETE(&quot;/:id&quot;)&lt;br&gt;deleteBusiness(id: int): void" style="rounded=0;whiteSpace=wrap;html=1;align=left;" parent="1" vertex="1">
          <mxGeometry x="10" y="560" width="350" height="200" as="geometry" />
        </mxCell>
        <mxCell id="Y2eR_TgA9FXkRKuqVugD-6" value="&lt;b&gt;AccountController(&quot;/account/&quot;)&lt;br&gt;&lt;/b&gt;@POST(&quot;...AllCredentials&quot;)&lt;br&gt;createAccount(): void&lt;br&gt;&lt;br&gt;@GET(&quot;/:id&quot;)&lt;br&gt;getIndivdualAccount(): Account&lt;br&gt;&lt;br&gt;@GET(&quot;/&quot;)&lt;br&gt;getAllAccounts(): Account[]&lt;br&gt;&lt;br&gt;@DELETE(&quot;/:id&quot;)&lt;br&gt;deleteAccount(): void" style="rounded=0;whiteSpace=wrap;html=1;align=left;" parent="1" vertex="1">
          <mxGeometry x="440" y="560" width="240" height="180" as="geometry" />
        </mxCell>
        <mxCell id="Y2eR_TgA9FXkRKuqVugD-8" value="Has a" style="endArrow=classic;html=1;exitX=0.5;exitY=1;exitDx=0;exitDy=0;entryX=0.471;entryY=0;entryDx=0;entryDy=0;entryPerimeter=0;" parent="1" source="Y2eR_TgA9FXkRKuqVugD-3" target="Y2eR_TgA9FXkRKuqVugD-6" edge="1">
          <mxGeometry width="50" height="50" relative="1" as="geometry">
            <mxPoint x="350" y="230" as="sourcePoint" />
            <mxPoint x="567.7108433734938" y="570" as="targetPoint" />
          </mxGeometry>
        </mxCell>
        <mxCell id="Y2eR_TgA9FXkRKuqVugD-10" value="Has a" style="endArrow=classic;html=1;exitX=0.5;exitY=1;exitDx=0;exitDy=0;" parent="1" source="Y2eR_TgA9FXkRKuqVugD-2" target="Y2eR_TgA9FXkRKuqVugD-5" edge="1">
          <mxGeometry width="50" height="50" relative="1" as="geometry">
            <mxPoint x="80" y="270" as="sourcePoint" />
            <mxPoint x="130" y="220" as="targetPoint" />
          </mxGeometry>
        </mxCell>
        <mxCell id="Y2eR_TgA9FXkRKuqVugD-12" value="Is a" style="endArrow=classic;html=1;exitX=0.5;exitY=0;exitDx=0;exitDy=0;entryX=0.5;entryY=1;entryDx=0;entryDy=0;" parent="1" source="Y2eR_TgA9FXkRKuqVugD-3" target="Y2eR_TgA9FXkRKuqVugD-1" edge="1">
          <mxGeometry width="50" height="50" relative="1" as="geometry">
            <mxPoint x="440" y="210" as="sourcePoint" />
            <mxPoint x="480" y="100" as="targetPoint" />
          </mxGeometry>
        </mxCell>
        <mxCell id="GVMPBroUDqH6-bMmOwNC-1" value="&lt;b&gt;MaskRequirement&lt;br&gt;&lt;/b&gt;+ MaskRequirement(isRequired: boolean, notes: string)" style="rounded=0;whiteSpace=wrap;html=1;align=left;" vertex="1" parent="1">
          <mxGeometry x="-380" y="170" width="300" height="60" as="geometry" />
        </mxCell>
        <mxCell id="GVMPBroUDqH6-bMmOwNC-2" value="Has a" style="endArrow=classic;html=1;exitX=1;exitY=0.5;exitDx=0;exitDy=0;entryX=0.003;entryY=0.103;entryDx=0;entryDy=0;entryPerimeter=0;" edge="1" parent="1" source="GVMPBroUDqH6-bMmOwNC-1" target="Y2eR_TgA9FXkRKuqVugD-2">
          <mxGeometry width="50" height="50" relative="1" as="geometry">
            <mxPoint x="-290" y="310" as="sourcePoint" />
            <mxPoint x="-240" y="260" as="targetPoint" />
          </mxGeometry>
        </mxCell>
        <mxCell id="GVMPBroUDqH6-bMmOwNC-4" value="&lt;b&gt;HoursOfOperation&lt;br&gt;&lt;/b&gt;+ HoursOfOperation(dayOfWeek: string, hours: string)" style="rounded=0;whiteSpace=wrap;html=1;align=left;" vertex="1" parent="1">
          <mxGeometry x="-380" y="250" width="300" height="60" as="geometry" />
        </mxCell>
        <mxCell id="GVMPBroUDqH6-bMmOwNC-5" value="Has a" style="endArrow=classic;html=1;exitX=1;exitY=0.5;exitDx=0;exitDy=0;" edge="1" parent="1" source="GVMPBroUDqH6-bMmOwNC-4" target="Y2eR_TgA9FXkRKuqVugD-2">
          <mxGeometry width="50" height="50" relative="1" as="geometry">
            <mxPoint x="-250" y="510" as="sourcePoint" />
            <mxPoint x="-103" y="250" as="targetPoint" />
          </mxGeometry>
        </mxCell>
        <mxCell id="GVMPBroUDqH6-bMmOwNC-7" value="CurbsideAvailibility&lt;br&gt;&lt;span style=&quot;font-weight: normal&quot;&gt;+ CurbsideAvailibility(isAvailible: boolean, notes: string)&lt;br&gt;&lt;/span&gt;" style="rounded=0;whiteSpace=wrap;html=1;fontStyle=1;align=left;" vertex="1" parent="1">
          <mxGeometry x="-379" y="330" width="299" height="60" as="geometry" />
        </mxCell>
        <mxCell id="GVMPBroUDqH6-bMmOwNC-8" value="Has a" style="endArrow=classic;html=1;exitX=1;exitY=0.5;exitDx=0;exitDy=0;entryX=-0.012;entryY=0.946;entryDx=0;entryDy=0;entryPerimeter=0;" edge="1" parent="1" source="GVMPBroUDqH6-bMmOwNC-7" target="Y2eR_TgA9FXkRKuqVugD-2">
          <mxGeometry width="50" height="50" relative="1" as="geometry">
            <mxPoint x="-310" y="580" as="sourcePoint" />
            <mxPoint x="-260" y="530" as="targetPoint" />
          </mxGeometry>
        </mxCell>
        <mxCell id="GVMPBroUDqH6-bMmOwNC-9" value="&lt;b&gt;AccountTypeEnum &lt;br&gt;&lt;/b&gt;{&lt;br&gt;CUSTOMER,&lt;br&gt;BUSINESS&lt;br&gt;}" style="rounded=0;whiteSpace=wrap;html=1;align=left;" vertex="1" parent="1">
          <mxGeometry x="600" y="320" width="120" height="80" as="geometry" />
        </mxCell>
        <mxCell id="GVMPBroUDqH6-bMmOwNC-10" value="Has a" style="endArrow=classic;html=1;exitX=0.5;exitY=0;exitDx=0;exitDy=0;entryX=0.708;entryY=0.988;entryDx=0;entryDy=0;entryPerimeter=0;" edge="1" parent="1" source="GVMPBroUDqH6-bMmOwNC-9" target="Y2eR_TgA9FXkRKuqVugD-3">
          <mxGeometry width="50" height="50" relative="1" as="geometry">
            <mxPoint x="570" y="240" as="sourcePoint" />
            <mxPoint x="620" y="190" as="targetPoint" />
          </mxGeometry>
        </mxCell>
        <mxCell id="GVMPBroUDqH6-bMmOwNC-12" value="&lt;b&gt;Customer&lt;br&gt;&lt;/b&gt;+ account: Account&lt;br&gt;+ favoritesList: Business[]&lt;br&gt;+ subscribedList: Business[]" style="rounded=0;whiteSpace=wrap;html=1;fontStyle=0;align=left;" vertex="1" parent="1">
          <mxGeometry x="760" y="120" width="280" height="80" as="geometry" />
        </mxCell>
        <mxCell id="GVMPBroUDqH6-bMmOwNC-14" value="Has a" style="endArrow=classic;html=1;exitX=0;exitY=0.5;exitDx=0;exitDy=0;entryX=1;entryY=0.5;entryDx=0;entryDy=0;" edge="1" parent="1" source="GVMPBroUDqH6-bMmOwNC-12" target="Y2eR_TgA9FXkRKuqVugD-3">
          <mxGeometry width="50" height="50" relative="1" as="geometry">
            <mxPoint x="820" y="340" as="sourcePoint" />
            <mxPoint x="870" y="290" as="targetPoint" />
          </mxGeometry>
        </mxCell>
        <mxCell id="GVMPBroUDqH6-bMmOwNC-22" value="Has a" style="edgeStyle=orthogonalEdgeStyle;rounded=0;orthogonalLoop=1;jettySize=auto;html=1;exitX=1;exitY=0.5;exitDx=0;exitDy=0;" edge="1" parent="1" source="GVMPBroUDqH6-bMmOwNC-15" target="GVMPBroUDqH6-bMmOwNC-21">
          <mxGeometry relative="1" as="geometry" />
        </mxCell>
        <mxCell id="GVMPBroUDqH6-bMmOwNC-15" value="&lt;b&gt;CustomerConstroller(&quot;/customer/&quot;)&lt;/b&gt;&lt;br&gt;&lt;br&gt;@POST(&quot;/:id&quot;)&lt;br&gt;updateCustomerPreferences(id: int, update: PreferencesUpdate)" style="rounded=0;whiteSpace=wrap;html=1;align=left;" vertex="1" parent="1">
          <mxGeometry x="760" y="560" width="280" height="90" as="geometry" />
        </mxCell>
        <mxCell id="GVMPBroUDqH6-bMmOwNC-16" value="" style="endArrow=classic;html=1;exitX=0.5;exitY=1;exitDx=0;exitDy=0;entryX=0.5;entryY=0;entryDx=0;entryDy=0;" edge="1" parent="1" source="GVMPBroUDqH6-bMmOwNC-12" target="GVMPBroUDqH6-bMmOwNC-15">
          <mxGeometry width="50" height="50" relative="1" as="geometry">
            <mxPoint x="830" y="320" as="sourcePoint" />
            <mxPoint x="880" y="270" as="targetPoint" />
          </mxGeometry>
        </mxCell>
        <mxCell id="GVMPBroUDqH6-bMmOwNC-21" value="&lt;b&gt;PerferencesUpdate&lt;/b&gt;&lt;br&gt;+ favoritesToRemove(names: string[])&lt;br&gt;+ favoritesToAdd(names: string[])&lt;br&gt;+ subscriptionsToRemove(names: string[])&lt;br&gt;+ subscriptionsToAdd(data: names[])" style="rounded=0;whiteSpace=wrap;html=1;align=left;" vertex="1" parent="1">
          <mxGeometry x="1120" y="560" width="260" height="90" as="geometry" />
        </mxCell>
      </root>
    </mxGraphModel>
  </diagram>
</mxfile>
